<svg width="156" height="56" viewBox="0 0 156 56" fill="none" xmlns="http://www.w3.org/2000/svg">
<rect width="156" height="56" rx="28" fill="#03A63C"/>
<path d="M66.912 30H58.134V14.292H66.912V16.03H60.114V20.936H66.516V22.652H60.114V28.262H66.912V30ZM77.0906 15.81C76.2546 15.81 75.4993 15.9567 74.8246 16.25C74.1499 16.5287 73.5779 16.9467 73.1086 17.504C72.6393 18.0467 72.2799 18.714 72.0306 19.506C71.7813 20.2833 71.6566 21.1633 71.6566 22.146C71.6566 23.4367 71.8546 24.5587 72.2506 25.512C72.6613 26.4653 73.2626 27.1987 74.0546 27.712C74.8613 28.2253 75.8659 28.482 77.0686 28.482C77.7579 28.482 78.4106 28.4233 79.0266 28.306C79.6426 28.1887 80.2439 28.042 80.8306 27.866V29.582C80.2439 29.802 79.6353 29.9633 79.0046 30.066C78.3886 30.1687 77.6479 30.22 76.7826 30.22C75.1839 30.22 73.8493 29.89 72.7786 29.23C71.7079 28.57 70.9013 27.6313 70.3586 26.414C69.8306 25.1967 69.5666 23.7667 69.5666 22.124C69.5666 20.936 69.7279 19.8507 70.0506 18.868C70.3879 17.8853 70.8719 17.0347 71.5026 16.316C72.1479 15.5973 72.9399 15.0473 73.8786 14.666C74.8173 14.27 75.8953 14.072 77.1126 14.072C77.9193 14.072 78.6966 14.1527 79.4446 14.314C80.1926 14.4753 80.8599 14.7027 81.4466 14.996L80.6546 16.668C80.1706 16.448 79.6279 16.25 79.0266 16.074C78.4399 15.898 77.7946 15.81 77.0906 15.81ZM97.5353 22.124C97.5353 23.3413 97.3813 24.4487 97.0733 25.446C96.7653 26.4287 96.3033 27.2793 95.6873 27.998C95.086 28.7167 94.3306 29.2667 93.4213 29.648C92.5266 30.0293 91.4853 30.22 90.2973 30.22C89.0653 30.22 87.9946 30.0293 87.0853 29.648C86.176 29.252 85.4206 28.702 84.8193 27.998C84.218 27.2793 83.7706 26.4213 83.4773 25.424C83.184 24.4267 83.0373 23.3193 83.0373 22.102C83.0373 20.4887 83.3013 19.0807 83.8293 17.878C84.3573 16.6753 85.1566 15.7367 86.2273 15.062C87.3126 14.3873 88.6766 14.05 90.3193 14.05C91.8886 14.05 93.2086 14.3873 94.2793 15.062C95.35 15.722 96.1566 16.6607 96.6993 17.878C97.2566 19.0807 97.5353 20.496 97.5353 22.124ZM85.1273 22.124C85.1273 23.444 85.3106 24.5807 85.6773 25.534C86.044 26.4873 86.6086 27.2207 87.3713 27.734C88.1486 28.2473 89.124 28.504 90.2973 28.504C91.4853 28.504 92.4533 28.2473 93.2013 27.734C93.964 27.2207 94.5286 26.4873 94.8953 25.534C95.262 24.5807 95.4453 23.444 95.4453 22.124C95.4453 20.144 95.0346 18.5967 94.2133 17.482C93.392 16.3527 92.094 15.788 90.3193 15.788C89.1313 15.788 88.1486 16.0447 87.3713 16.558C86.6086 17.0567 86.044 17.7827 85.6773 18.736C85.3106 19.6747 85.1273 20.804 85.1273 22.124ZM104.894 22.014L108.986 14.292H111.12L105.884 23.906V30H103.904V23.994L98.668 14.292H100.824L104.894 22.014ZM121.808 30L119.916 25.138H113.69L111.82 30H109.818L115.956 14.226H117.738L123.854 30H121.808ZM117.562 18.626C117.518 18.5087 117.445 18.296 117.342 17.988C117.24 17.68 117.137 17.3647 117.034 17.042C116.946 16.7047 116.873 16.448 116.814 16.272C116.741 16.5653 116.66 16.866 116.572 17.174C116.499 17.4673 116.418 17.7387 116.33 17.988C116.257 18.2373 116.191 18.45 116.132 18.626L114.35 23.378H119.322L117.562 18.626ZM138.455 30H136.145L127.741 16.954H127.653C127.668 17.218 127.682 17.5113 127.697 17.834C127.726 18.1567 127.748 18.5087 127.763 18.89C127.778 19.2567 127.792 19.638 127.807 20.034C127.822 20.43 127.829 20.826 127.829 21.222V30H126.003V14.292H128.291L136.673 27.294H136.761C136.746 27.118 136.732 26.876 136.717 26.568C136.702 26.2453 136.688 25.8933 136.673 25.512C136.658 25.116 136.644 24.7127 136.629 24.302C136.614 23.8913 136.607 23.51 136.607 23.158V14.292H138.455V30Z" fill="white"/>
<circle cx="135" cy="8" r="4.75" stroke="white" stroke-width="0.5"/>
<path d="M134.08 8.332V10H133.69V5.92H134.908C135.276 5.92 135.56 6.018 135.76 6.214C135.964 6.406 136.066 6.666 136.066 6.994V7.252C136.066 7.496 136.008 7.706 135.892 7.882C135.776 8.058 135.608 8.184 135.388 8.26C135.564 8.536 135.728 8.82 135.88 9.112C136.036 9.404 136.18 9.7 136.312 10H135.856C135.736 9.712 135.604 9.43 135.46 9.154C135.316 8.874 135.162 8.6 134.998 8.332H134.08ZM134.908 6.274H134.08V7.978H134.908C135.132 7.978 135.312 7.914 135.448 7.786C135.588 7.654 135.658 7.476 135.658 7.252V6.994C135.658 6.766 135.588 6.59 135.448 6.466C135.312 6.338 135.132 6.274 134.908 6.274Z" fill="white"/>
<line x1="57" y1="32.5" x2="139" y2="32.5" stroke="white"/>
<path d="M63.8291 40.9287C63.8291 41.2451 63.7705 41.5439 63.6533 41.8252C63.542 42.1064 63.3896 42.3701 63.1963 42.6162C63.0029 42.8564 62.7773 43.0732 62.5195 43.2666C62.2676 43.46 61.9951 43.624 61.7021 43.7588C61.415 43.8936 61.1191 43.999 60.8145 44.0752C60.5098 44.1455 60.2139 44.1807 59.9268 44.1807C59.8975 44.1807 59.8623 44.1836 59.8213 44.1895C59.7803 44.1895 59.7363 44.1865 59.6895 44.1807C59.6426 44.1748 59.5986 44.1689 59.5576 44.1631C59.5166 44.1514 59.4873 44.1309 59.4697 44.1016C59.3936 44.2539 59.3115 44.4062 59.2236 44.5586C59.1416 44.7051 59.0479 44.8457 58.9424 44.9805C58.708 45.2969 58.415 45.5605 58.0635 45.7715C57.7119 45.9766 57.334 46.0791 56.9297 46.0791C56.9004 46.0791 56.877 46.0645 56.8594 46.0352C56.8359 46.0059 56.8242 45.9766 56.8242 45.9473C56.8242 45.877 56.8564 45.8359 56.9209 45.8242C57.0381 45.7949 57.1494 45.7715 57.2549 45.7539C57.3604 45.7305 57.4717 45.6953 57.5889 45.6484C57.8584 45.5312 58.0928 45.3672 58.292 45.1562C58.4971 44.9395 58.6758 44.6992 58.8281 44.4355C58.9805 44.1719 59.1123 43.8994 59.2236 43.6182C59.335 43.3311 59.4346 43.0586 59.5225 42.8008C59.5986 42.5664 59.6689 42.3291 59.7334 42.0889C59.8037 41.8486 59.874 41.6113 59.9443 41.377C60.0146 41.1367 60.0908 40.8994 60.1729 40.665C60.2549 40.4307 60.3516 40.2021 60.4629 39.9795C60.2988 40.0791 60.1318 40.1699 59.9619 40.252C59.792 40.3281 59.625 40.416 59.4609 40.5156C59.3438 40.5859 59.2236 40.665 59.1006 40.7529C58.9834 40.835 58.8721 40.9258 58.7666 41.0254C58.6611 41.125 58.5645 41.2334 58.4766 41.3506C58.3945 41.4619 58.3271 41.585 58.2744 41.7197C58.251 41.7783 58.2334 41.8369 58.2217 41.8955C58.2158 41.9482 58.207 42.0068 58.1953 42.0713C58.1836 42.1006 58.166 42.124 58.1426 42.1416C58.1191 42.1533 58.0957 42.1592 58.0723 42.1592C58.0078 42.1592 57.9668 42.1416 57.9492 42.1064C57.9375 42.0654 57.9316 42.0215 57.9316 41.9746C57.9316 41.7754 57.9697 41.5879 58.0459 41.4121C58.1221 41.2305 58.2188 41.0635 58.3359 40.9111C58.459 40.7529 58.5967 40.6094 58.749 40.4805C58.9072 40.3516 59.0654 40.2373 59.2236 40.1377C59.4873 39.9678 59.7656 39.8037 60.0586 39.6455C60.3516 39.4814 60.6445 39.3496 60.9375 39.25H60.9551C60.9902 39.25 61.0254 39.2646 61.0605 39.2939C61.1016 39.3232 61.1221 39.3584 61.1221 39.3994C61.1221 39.4053 61.1104 39.4375 61.0869 39.4961C61.0693 39.5547 61.0459 39.6191 61.0166 39.6895C60.9932 39.7598 60.9668 39.8271 60.9375 39.8916C60.9141 39.9561 60.8994 39.9971 60.8936 40.0146C60.999 39.915 61.1162 39.8213 61.2451 39.7334C61.374 39.6396 61.5088 39.5576 61.6494 39.4873C61.79 39.417 61.9336 39.3613 62.0801 39.3203C62.2324 39.2793 62.3848 39.2588 62.5371 39.2588C62.7715 39.2588 62.9707 39.3086 63.1348 39.4082C63.2988 39.5078 63.4307 39.6367 63.5303 39.7949C63.6357 39.9531 63.7119 40.1318 63.7588 40.3311C63.8057 40.5303 63.8291 40.7295 63.8291 40.9287ZM63.3809 40.9375C63.3809 40.8086 63.3662 40.6738 63.3369 40.5332C63.3135 40.3867 63.2695 40.2578 63.2051 40.1465C63.1406 40.0293 63.0527 39.9326 62.9414 39.8564C62.8359 39.7803 62.7041 39.7422 62.5459 39.7422C62.4521 39.7422 62.3584 39.7539 62.2646 39.7773C62.1709 39.8008 62.0801 39.8301 61.9922 39.8652C61.7402 39.9648 61.5059 40.1025 61.2891 40.2783C61.0723 40.4482 60.8789 40.6387 60.709 40.8496C60.6797 40.8848 60.6475 40.9258 60.6123 40.9727C60.583 41.0137 60.5566 41.0547 60.5332 41.0957C60.5039 41.1602 60.4717 41.2539 60.4365 41.377C60.4072 41.4941 60.3809 41.5908 60.3574 41.667C60.293 41.8779 60.2256 42.0918 60.1553 42.3086C60.085 42.5195 60.0146 42.7305 59.9443 42.9414C59.8857 43.1055 59.8242 43.2695 59.7598 43.4336C59.7012 43.5918 59.6367 43.75 59.5664 43.9082C59.5957 43.8965 59.625 43.8936 59.6543 43.8994C59.6836 43.8994 59.7129 43.8994 59.7422 43.8994C60.1289 43.8994 60.5332 43.8262 60.9551 43.6797C61.3828 43.5273 61.7754 43.3193 62.1328 43.0557C62.4961 42.792 62.7949 42.4814 63.0293 42.124C63.2637 41.7607 63.3809 41.3652 63.3809 40.9375ZM66.9074 42.4844C66.9074 42.5312 66.9045 42.5752 66.8986 42.6162C66.8927 42.6572 66.8839 42.7012 66.8722 42.748C66.8605 42.7949 66.8283 42.8184 66.7755 42.8184C66.7521 42.8184 66.717 42.8096 66.6701 42.792C66.6291 42.7686 66.6086 42.7451 66.6086 42.7217L66.6173 42.6426C66.6173 42.6016 66.6115 42.5518 66.5998 42.4932C66.5939 42.4346 66.5793 42.3789 66.5558 42.3262C66.5382 42.2676 66.5119 42.2207 66.4767 42.1855C66.4416 42.1445 66.3947 42.124 66.3361 42.124C66.1955 42.124 66.0461 42.168 65.8879 42.2559C65.7296 42.3379 65.5949 42.4199 65.4836 42.502C65.4367 42.5371 65.3722 42.5898 65.2902 42.6602C65.2082 42.7305 65.1232 42.8066 65.0353 42.8887C64.9474 42.9707 64.8654 43.0498 64.7892 43.126C64.7189 43.2021 64.6691 43.2637 64.6398 43.3105C64.6222 43.334 64.5988 43.3779 64.5695 43.4424C64.5461 43.501 64.5197 43.5654 64.4904 43.6357C64.467 43.7061 64.4406 43.7734 64.4113 43.8379C64.3879 43.9023 64.3673 43.9521 64.3498 43.9873C64.2326 44.2686 64.1183 44.5498 64.007 44.8311C63.9015 45.1123 63.8019 45.3965 63.7082 45.6836C63.6613 45.8184 63.6173 45.9561 63.5763 46.0967C63.5412 46.2432 63.5002 46.3838 63.4533 46.5186C63.4298 46.5654 63.4005 46.5889 63.3654 46.5889C63.342 46.5889 63.3068 46.5742 63.2599 46.5449C63.2189 46.5215 63.1984 46.498 63.1984 46.4746C63.1984 46.4102 63.2072 46.3369 63.2248 46.2549C63.2482 46.1729 63.2658 46.0996 63.2775 46.0352C63.3537 45.6543 63.4474 45.2793 63.5588 44.9102C63.6701 44.541 63.799 44.1777 63.9455 43.8203C63.9982 43.6797 64.0597 43.5127 64.13 43.3193C64.2062 43.126 64.2853 42.9297 64.3673 42.7305C64.4494 42.5254 64.5343 42.335 64.6222 42.1592C64.716 41.9775 64.8097 41.834 64.9035 41.7285C64.9269 41.7051 64.9533 41.6934 64.9826 41.6934C65.006 41.6934 65.0382 41.708 65.0793 41.7373C65.1261 41.7607 65.1496 41.7871 65.1496 41.8164C65.1496 41.834 65.1437 41.8662 65.132 41.9131C65.1203 41.9541 65.1086 42.001 65.0968 42.0537C65.0851 42.1006 65.0705 42.1475 65.0529 42.1943C65.0412 42.2354 65.0324 42.2646 65.0265 42.2822C65.214 42.1416 65.4103 42.0156 65.6154 41.9043C65.8205 41.793 66.0461 41.7373 66.2921 41.7373C66.3976 41.7373 66.4884 41.7607 66.5646 41.8076C66.6408 41.8486 66.7052 41.9043 66.758 41.9746C66.8107 42.0449 66.8488 42.124 66.8722 42.2119C66.8957 42.2998 66.9074 42.3906 66.9074 42.4844ZM70.3196 42.8359C70.3196 43.0586 70.2933 43.3018 70.2405 43.5654C70.1937 43.8291 70.1204 44.0928 70.0208 44.3564C69.9212 44.6201 69.7982 44.8779 69.6517 45.1299C69.5111 45.376 69.347 45.5957 69.1595 45.7891C68.9779 45.9824 68.7728 46.1348 68.5443 46.2461C68.3216 46.3633 68.0814 46.4219 67.8236 46.4219C67.6302 46.4219 67.4632 46.3691 67.3226 46.2637C67.182 46.1641 67.0618 46.0352 66.9622 45.877C66.8685 45.7188 66.7982 45.5488 66.7513 45.3672C66.7044 45.1797 66.681 45.0039 66.681 44.8398C66.681 44.6465 66.7073 44.4561 66.7601 44.2686C66.9241 43.7295 67.1878 43.249 67.5511 42.8271C67.9144 42.4053 68.3568 42.0889 68.8782 41.8779C68.89 41.8721 68.9046 41.8691 68.9222 41.8691C68.9632 41.8691 68.9925 41.8838 69.0101 41.9131C69.0335 41.9424 69.0452 41.9746 69.0452 42.0098C69.0452 42.0508 69.0218 42.0859 68.9749 42.1152C68.8929 42.1621 68.8109 42.209 68.7288 42.2559C68.6468 42.2969 68.5648 42.3496 68.4827 42.4141C68.1605 42.6484 67.8851 42.9385 67.6566 43.2842C67.428 43.6299 67.2552 43.9932 67.138 44.374C67.097 44.4971 67.0765 44.6348 67.0765 44.7871C67.0765 44.9102 67.0941 45.042 67.1292 45.1826C67.1644 45.3232 67.2171 45.4551 67.2874 45.5781C67.3577 45.6953 67.4456 45.7949 67.5511 45.877C67.6624 45.9531 67.7913 45.9912 67.9378 45.9912C68.0316 45.9912 68.1195 45.9736 68.2015 45.9385C68.2894 45.9033 68.3714 45.8594 68.4476 45.8066C68.6702 45.6484 68.8695 45.4434 69.0452 45.1914C69.221 44.9395 69.3704 44.6699 69.4935 44.3828C69.6165 44.0898 69.7103 43.7939 69.7747 43.4951C69.8392 43.1904 69.8714 42.9033 69.8714 42.6338V42.5283C69.8597 42.376 69.807 42.2471 69.7132 42.1416C69.6253 42.0361 69.514 41.9512 69.3792 41.8867C69.3382 41.8691 69.2972 41.8545 69.2562 41.8428C69.221 41.8311 69.1859 41.8164 69.1507 41.7988C69.0921 41.7754 69.0628 41.7344 69.0628 41.6758C69.0628 41.6348 69.0745 41.5996 69.098 41.5703C69.1214 41.541 69.1536 41.5293 69.1946 41.5352H69.2034C69.3323 41.5469 69.4583 41.5762 69.5814 41.623C69.7103 41.6699 69.8245 41.7344 69.9241 41.8164C70.0238 41.8984 70.1058 41.9951 70.1702 42.1064C70.2405 42.2178 70.2845 42.3438 70.3021 42.4844C70.3138 42.543 70.3196 42.6016 70.3196 42.6602C70.3196 42.7129 70.3196 42.7715 70.3196 42.8359ZM76.7466 45.4463C76.7466 45.4873 76.6938 45.5488 76.5884 45.6309C76.4888 45.707 76.3716 45.7861 76.2368 45.8682C76.102 45.9443 75.9702 46.0146 75.8413 46.0791C75.7182 46.1494 75.6333 46.1934 75.5864 46.2109C75.4751 46.252 75.3696 46.2725 75.27 46.2725C75.0825 46.2725 74.9507 46.2109 74.8745 46.0879C74.8042 45.9648 74.769 45.8184 74.769 45.6484C74.769 45.4668 74.8013 45.2529 74.8657 45.0068C74.9302 44.7607 75.0063 44.5088 75.0942 44.251C75.188 43.9873 75.2817 43.7324 75.3755 43.4863C75.4751 43.2344 75.5571 43.0176 75.6216 42.8359C75.6626 42.7129 75.7065 42.5723 75.7534 42.4141C75.8061 42.2559 75.8325 42.1094 75.8325 41.9746C75.7505 41.998 75.6538 42.0361 75.5425 42.0889C75.437 42.1357 75.3491 42.1826 75.2788 42.2295C75.0151 42.4053 74.7602 42.5898 74.5141 42.7832C74.268 42.9707 74.022 43.167 73.7759 43.3721C73.6821 43.7412 73.5766 44.1074 73.4595 44.4707C73.3423 44.834 73.2075 45.1914 73.0552 45.543C73.0083 45.6426 72.9614 45.7451 72.9145 45.8506C72.8735 45.9561 72.8237 46.0527 72.7651 46.1406C72.7417 46.1816 72.7095 46.2021 72.6684 46.2021C72.6391 46.2021 72.604 46.1875 72.563 46.1582C72.5278 46.1289 72.5102 46.0996 72.5102 46.0703C72.5102 46.0645 72.5161 46.0293 72.5278 45.9648C72.5454 45.8945 72.5571 45.8564 72.563 45.8506C72.645 45.4873 72.7417 45.1328 72.853 44.7871C72.9702 44.4355 73.0874 44.084 73.2046 43.7324C73.2983 43.416 73.3862 43.0996 73.4682 42.7832C73.5034 42.6484 73.5356 42.5137 73.5649 42.3789C73.5942 42.2383 73.6089 42.1006 73.6089 41.9658C73.6089 41.9424 73.6059 41.9219 73.6001 41.9043C73.6001 41.8867 73.6001 41.8691 73.6001 41.8516C73.4595 41.8809 73.3042 41.9688 73.1343 42.1152C72.9702 42.2559 72.8061 42.4199 72.6421 42.6074C72.478 42.7891 72.3227 42.9736 72.1763 43.1611C72.0298 43.3428 71.9067 43.4893 71.8071 43.6006C71.7954 43.6123 71.7866 43.6182 71.7807 43.6182C71.7632 43.6533 71.7456 43.6885 71.728 43.7236C71.7163 43.7588 71.7016 43.791 71.6841 43.8203C71.5493 44.084 71.4204 44.3447 71.2973 44.6025C71.1802 44.8604 71.0659 45.124 70.9546 45.3936C70.8901 45.54 70.8315 45.6895 70.7788 45.8418C70.7319 45.9883 70.6792 46.1348 70.6206 46.2812C70.603 46.3281 70.5708 46.3516 70.5239 46.3516C70.4946 46.3516 70.4595 46.3369 70.4184 46.3076C70.3833 46.2783 70.3657 46.252 70.3657 46.2285C70.3657 46.2227 70.3716 46.2021 70.3833 46.167C70.3891 46.1377 70.3979 46.1025 70.4096 46.0615C70.4155 46.0205 70.4214 45.9824 70.4272 45.9473C70.4389 45.9121 70.4448 45.8887 70.4448 45.877C70.5444 45.4902 70.6645 45.1094 70.8052 44.7344C70.9516 44.3594 71.1128 43.9902 71.2886 43.627C71.3706 43.457 71.4497 43.2871 71.5259 43.1172C71.602 42.9414 71.6841 42.7686 71.772 42.5986C71.8071 42.5283 71.8481 42.4463 71.895 42.3525C71.9419 42.2588 71.9917 42.168 72.0444 42.0801C72.103 41.9863 72.1616 41.8984 72.2202 41.8164C72.2788 41.7285 72.3345 41.6582 72.3872 41.6055C72.4106 41.582 72.437 41.5703 72.4663 41.5703C72.4897 41.5703 72.522 41.5879 72.563 41.623C72.604 41.6523 72.6245 41.6816 72.6245 41.7109C72.6245 41.7285 72.6128 41.7666 72.5893 41.8252C72.5718 41.8838 72.5513 41.9482 72.5278 42.0186C72.5044 42.0889 72.478 42.1562 72.4487 42.2207C72.4253 42.2793 72.4106 42.3203 72.4048 42.3438C72.4692 42.2676 72.5483 42.1768 72.6421 42.0713C72.7358 41.9658 72.8354 41.8662 72.9409 41.7725C73.0522 41.6729 73.1665 41.5908 73.2837 41.5264C73.4009 41.4619 73.5151 41.4297 73.6264 41.4297C73.7143 41.4297 73.7846 41.4473 73.8374 41.4824C73.896 41.5176 73.937 41.5645 73.9604 41.623C73.9897 41.6758 74.0073 41.7373 74.0132 41.8076C74.0249 41.8779 74.0307 41.9482 74.0307 42.0186C74.0307 42.1357 74.022 42.2529 74.0044 42.3701C73.9868 42.4873 73.9634 42.6045 73.9341 42.7217C74.0454 42.6104 74.1802 42.4844 74.3384 42.3438C74.4966 42.1973 74.6665 42.0625 74.8481 41.9395C75.0298 41.8105 75.2114 41.7051 75.393 41.623C75.5805 41.5352 75.7534 41.4912 75.9116 41.4912C76.0054 41.4912 76.0903 41.5293 76.1665 41.6055C76.2485 41.6816 76.2895 41.7666 76.2895 41.8604C76.2895 41.9717 76.2837 42.0801 76.272 42.1855C76.2602 42.291 76.2368 42.3965 76.2016 42.502C76.1313 42.7422 76.0493 42.9824 75.9555 43.2227C75.8618 43.457 75.768 43.6914 75.6743 43.9258C75.5805 44.1602 75.4897 44.3945 75.4018 44.6289C75.3198 44.8633 75.2495 45.1035 75.1909 45.3496C75.1792 45.4082 75.1675 45.4668 75.1557 45.5254C75.144 45.584 75.1382 45.6426 75.1382 45.7012C75.1382 45.7656 75.144 45.8213 75.1557 45.8682C75.1675 45.9092 75.2114 45.9297 75.2876 45.9297C75.3872 45.9297 75.5073 45.8975 75.6479 45.833C75.7886 45.7686 75.9263 45.6982 76.061 45.6221C76.2016 45.54 76.3218 45.4668 76.4214 45.4023C76.5268 45.3379 76.5913 45.3057 76.6147 45.3057C76.6499 45.3057 76.6792 45.3203 76.7026 45.3496C76.7319 45.3789 76.7466 45.4111 76.7466 45.4463ZM79.0778 39.4521C79.0778 39.4873 79.0631 39.5283 79.0338 39.5752L79.025 39.6016C79.0368 39.6367 79.0426 39.6631 79.0426 39.6807C79.0016 39.71 78.9723 39.7422 78.9547 39.7773C78.9371 39.8066 78.8961 39.8213 78.8317 39.8213C78.7789 39.8213 78.7262 39.8008 78.6735 39.7598C78.6207 39.7129 78.5944 39.6572 78.5944 39.5928C78.5944 39.4873 78.6032 39.4023 78.6207 39.3379C78.6442 39.2676 78.7233 39.2324 78.858 39.2324C78.9108 39.2324 78.9606 39.2559 79.0075 39.3027C79.0543 39.3496 79.0778 39.3994 79.0778 39.4521ZM79.0163 45.0596C79.0163 45.0889 79.0075 45.1123 78.9899 45.1299C78.8786 45.2646 78.7702 45.3994 78.6647 45.5342C78.5651 45.6631 78.4567 45.7832 78.3395 45.8945C78.2282 46.0059 78.1022 46.0996 77.9616 46.1758C77.8209 46.2578 77.6598 46.3164 77.4782 46.3516C77.32 46.2812 77.2116 46.1875 77.153 46.0703C77.0944 45.959 77.0651 45.8213 77.0651 45.6572V45.3408C77.0651 45.1885 77.0797 45.0303 77.109 44.8662C77.1442 44.7021 77.1793 44.5439 77.2145 44.3916C77.2672 44.1631 77.3258 43.917 77.3903 43.6533C77.4606 43.3896 77.5397 43.1289 77.6276 42.8711C77.7213 42.6074 77.8268 42.3555 77.944 42.1152C78.0612 41.8691 78.193 41.6553 78.3395 41.4736C78.3688 41.4443 78.3981 41.4297 78.4274 41.4297C78.4625 41.4297 78.4977 41.4443 78.5329 41.4736C78.568 41.4971 78.5856 41.5293 78.5856 41.5703V41.5879C78.486 41.8984 78.3717 42.2266 78.2428 42.5723C78.1198 42.9121 77.9996 43.2607 77.8825 43.6182C77.7711 43.9697 77.6745 44.3213 77.5924 44.6729C77.5163 45.0244 77.4782 45.3643 77.4782 45.6924C77.4782 45.7275 77.4782 45.7773 77.4782 45.8418C77.484 45.9062 77.5045 45.9473 77.5397 45.9648C77.6686 45.9414 77.8034 45.874 77.944 45.7627C78.0905 45.6514 78.2252 45.5342 78.3483 45.4111C78.4772 45.2881 78.5885 45.1768 78.6823 45.0771C78.776 44.9775 78.8405 44.9277 78.8756 44.9277C78.9049 44.9277 78.9342 44.9424 78.9635 44.9717C78.9987 45.001 79.0163 45.0303 79.0163 45.0596ZM82.9471 41.7812C82.9471 41.8574 82.9119 41.9014 82.8416 41.9131C82.8123 41.9248 82.783 41.9307 82.7537 41.9307C82.7303 41.9248 82.7039 41.9248 82.6746 41.9307C82.6043 41.9365 82.534 41.9453 82.4637 41.957C82.3992 41.9688 82.3318 41.9805 82.2615 41.9922C81.9451 42.0566 81.6346 42.1621 81.3299 42.3086C81.0311 42.4492 80.7703 42.6367 80.5477 42.8711C80.4832 42.9414 80.4305 43.0176 80.3895 43.0996C80.3543 43.1758 80.3367 43.2637 80.3367 43.3633C80.3367 43.4277 80.3719 43.4775 80.4422 43.5127C80.5125 43.5479 80.5975 43.583 80.6971 43.6182C80.8025 43.6533 80.9139 43.6914 81.0311 43.7324C81.1541 43.7734 81.2654 43.832 81.365 43.9082C81.4705 43.9844 81.5584 44.084 81.6287 44.207C81.699 44.3242 81.7342 44.4766 81.7342 44.6641C81.7342 44.8809 81.6932 45.0889 81.6111 45.2881C81.5291 45.4873 81.4148 45.666 81.2684 45.8242C81.1219 45.9766 80.952 46.0967 80.7586 46.1846C80.5652 46.2783 80.3602 46.3252 80.1434 46.3252C79.9383 46.3252 79.7566 46.2812 79.5984 46.1934C79.4461 46.1055 79.3172 45.9912 79.2117 45.8506C79.1063 45.71 79.0271 45.5518 78.9744 45.376C78.9217 45.1943 78.8953 45.0098 78.8953 44.8223C78.8953 44.7871 78.8953 44.7432 78.8953 44.6904C78.9012 44.6318 78.907 44.5762 78.9129 44.5234C78.9246 44.4707 78.9422 44.4238 78.9656 44.3828C78.9891 44.3418 79.0242 44.3213 79.0711 44.3213C79.1004 44.3213 79.1297 44.333 79.159 44.3564C79.1941 44.3799 79.2117 44.4092 79.2117 44.4443C79.2117 44.5791 79.2264 44.7285 79.2557 44.8926C79.2908 45.0566 79.3436 45.209 79.4139 45.3496C79.4842 45.4902 79.5779 45.6104 79.6951 45.71C79.8123 45.8037 79.9559 45.8506 80.1258 45.8506C80.2781 45.8506 80.4246 45.8184 80.5652 45.7539C80.7059 45.6836 80.8289 45.5928 80.9344 45.4814C81.0457 45.3701 81.1307 45.2441 81.1893 45.1035C81.2537 44.957 81.2859 44.8076 81.2859 44.6553V44.5674C81.2859 44.4678 81.2508 44.3857 81.1805 44.3213C81.116 44.2568 81.034 44.2041 80.9344 44.1631C80.8348 44.1162 80.7264 44.0723 80.6092 44.0312C80.492 43.9902 80.3836 43.9434 80.284 43.8906C80.1844 43.832 80.0994 43.7617 80.0291 43.6797C79.9646 43.5977 79.9324 43.4893 79.9324 43.3545C79.9324 43.2139 79.9617 43.0791 80.0203 42.9502C80.0848 42.8213 80.1668 42.707 80.2664 42.6074C80.6121 42.2734 81.0076 42.0332 81.4529 41.8867C81.9041 41.7344 82.367 41.6582 82.8416 41.6582C82.8768 41.6582 82.9031 41.6729 82.9207 41.7021C82.9383 41.7256 82.9471 41.752 82.9471 41.7812ZM84.83 39.4521C84.83 39.4873 84.8154 39.5283 84.7861 39.5752L84.7773 39.6016C84.789 39.6367 84.7949 39.6631 84.7949 39.6807C84.7539 39.71 84.7246 39.7422 84.707 39.7773C84.6894 39.8066 84.6484 39.8213 84.5839 39.8213C84.5312 39.8213 84.4785 39.8008 84.4257 39.7598C84.373 39.7129 84.3466 39.6572 84.3466 39.5928C84.3466 39.4873 84.3554 39.4023 84.373 39.3379C84.3964 39.2676 84.4755 39.2324 84.6103 39.2324C84.663 39.2324 84.7129 39.2559 84.7597 39.3027C84.8066 39.3496 84.83 39.3994 84.83 39.4521ZM84.7685 45.0596C84.7685 45.0889 84.7597 45.1123 84.7421 45.1299C84.6308 45.2646 84.5224 45.3994 84.417 45.5342C84.3173 45.6631 84.2089 45.7832 84.0918 45.8945C83.9804 46.0059 83.8545 46.0996 83.7138 46.1758C83.5732 46.2578 83.4121 46.3164 83.2304 46.3516C83.0722 46.2812 82.9638 46.1875 82.9052 46.0703C82.8466 45.959 82.8173 45.8213 82.8173 45.6572V45.3408C82.8173 45.1885 82.832 45.0303 82.8613 44.8662C82.8964 44.7021 82.9316 44.5439 82.9668 44.3916C83.0195 44.1631 83.0781 43.917 83.1425 43.6533C83.2129 43.3896 83.292 43.1289 83.3798 42.8711C83.4736 42.6074 83.5791 42.3555 83.6963 42.1152C83.8134 41.8691 83.9453 41.6553 84.0918 41.4736C84.1211 41.4443 84.1504 41.4297 84.1796 41.4297C84.2148 41.4297 84.25 41.4443 84.2851 41.4736C84.3203 41.4971 84.3379 41.5293 84.3379 41.5703V41.5879C84.2382 41.8984 84.124 42.2266 83.9951 42.5723C83.872 42.9121 83.7519 43.2607 83.6347 43.6182C83.5234 43.9697 83.4267 44.3213 83.3447 44.6729C83.2685 45.0244 83.2304 45.3643 83.2304 45.6924C83.2304 45.7275 83.2304 45.7773 83.2304 45.8418C83.2363 45.9062 83.2568 45.9473 83.292 45.9648C83.4209 45.9414 83.5556 45.874 83.6963 45.7627C83.8427 45.6514 83.9775 45.5342 84.1005 45.4111C84.2295 45.2881 84.3408 45.1768 84.4345 45.0771C84.5283 44.9775 84.5927 44.9277 84.6279 44.9277C84.6572 44.9277 84.6865 44.9424 84.7158 44.9717C84.7509 45.001 84.7685 45.0303 84.7685 45.0596ZM89.0773 45.4111C89.0773 45.4463 89.0626 45.4727 89.0333 45.4902C88.9689 45.543 88.8927 45.6016 88.8048 45.666C88.7169 45.7305 88.6232 45.7949 88.5236 45.8594C88.4239 45.918 88.3243 45.9736 88.2247 46.0264C88.131 46.0791 88.046 46.1201 87.9698 46.1494C87.8351 46.208 87.7091 46.2373 87.5919 46.2373C87.4161 46.2373 87.2872 46.1729 87.2052 46.0439C87.129 45.9209 87.0909 45.7832 87.0909 45.6309C87.0909 45.4492 87.1202 45.2441 87.1788 45.0156C87.2374 44.7812 87.3077 44.5439 87.3898 44.3037C87.4718 44.0635 87.5568 43.8291 87.6446 43.6006C87.7384 43.3662 87.8175 43.1611 87.882 42.9854C87.9464 42.8154 88.005 42.6455 88.0577 42.4756C88.1105 42.2998 88.1456 42.1182 88.1632 41.9307C88.0577 41.9424 87.9142 42.001 87.7325 42.1064C87.5509 42.2119 87.3605 42.335 87.1612 42.4756C86.9679 42.6104 86.7833 42.7451 86.6075 42.8799C86.4318 43.0146 86.2941 43.1172 86.1945 43.1875L85.878 43.8203C85.7374 44.0957 85.6027 44.3711 85.4737 44.6465C85.3507 44.916 85.2306 45.1914 85.1134 45.4727C85.0607 45.6074 85.0109 45.7422 84.964 45.877C84.9171 46.0117 84.8644 46.1465 84.8058 46.2812C84.7882 46.3281 84.756 46.3516 84.7091 46.3516C84.6857 46.3516 84.6564 46.3369 84.6212 46.3076C84.5802 46.2783 84.5597 46.252 84.5597 46.2285C84.5597 46.2227 84.5655 46.2021 84.5773 46.167C84.5831 46.1377 84.5919 46.1025 84.6036 46.0615C84.6095 46.0205 84.6183 45.9824 84.63 45.9473C84.6359 45.9121 84.6388 45.8887 84.6388 45.877C84.7384 45.4902 84.8585 45.1094 84.9991 44.7344C85.1456 44.3594 85.3068 43.9902 85.4825 43.627C85.5646 43.457 85.6437 43.2871 85.7198 43.1172C85.796 42.9414 85.8751 42.7686 85.9571 42.5986C85.9923 42.5342 86.0333 42.4551 86.0802 42.3613C86.1329 42.2676 86.1857 42.1738 86.2384 42.0801C86.297 41.9805 86.3556 41.8896 86.4142 41.8076C86.4728 41.7197 86.5284 41.6523 86.5812 41.6055C86.6046 41.582 86.631 41.5703 86.6603 41.5703C86.6837 41.5703 86.7159 41.5879 86.757 41.623C86.798 41.6523 86.8185 41.6816 86.8185 41.7109C86.8185 41.7285 86.8068 41.7695 86.7833 41.834C86.7657 41.8984 86.7423 41.9688 86.713 42.0449C86.6837 42.1152 86.6544 42.1855 86.6251 42.2559C86.6017 42.3203 86.587 42.3643 86.5812 42.3877C86.6808 42.2939 86.795 42.1914 86.9239 42.0801C87.0587 41.9688 87.1993 41.8662 87.3458 41.7725C87.4982 41.6787 87.6534 41.6025 87.8116 41.5439C87.9698 41.4795 88.1193 41.4473 88.2599 41.4473C88.3419 41.4473 88.4181 41.4854 88.4884 41.5615C88.5646 41.6318 88.6085 41.708 88.6202 41.79C88.632 41.8486 88.6378 41.8926 88.6378 41.9219C88.6378 42.0215 88.6173 42.1445 88.5763 42.291C88.5411 42.4316 88.506 42.5518 88.4708 42.6514C88.4122 42.8213 88.3273 43.0469 88.2159 43.3281C88.1046 43.6035 87.9933 43.8877 87.882 44.1807C87.7706 44.4736 87.6739 44.7549 87.5919 45.0244C87.5099 45.2939 87.4689 45.5049 87.4689 45.6572C87.4689 45.7217 87.4747 45.7773 87.4864 45.8242C87.4982 45.8652 87.5421 45.8857 87.6183 45.8857C87.7237 45.8857 87.8468 45.8535 87.9874 45.7891C88.1339 45.7246 88.2745 45.6543 88.4093 45.5781C88.5441 45.4961 88.6612 45.4229 88.7609 45.3584C88.8605 45.2939 88.922 45.2617 88.9454 45.2617C88.9806 45.2617 89.0099 45.2793 89.0333 45.3145C89.0626 45.3438 89.0773 45.376 89.0773 45.4111ZM92.6126 41.9922C92.6126 42.0039 92.6067 42.0215 92.595 42.0449C92.5833 42.1445 92.5716 42.2412 92.5598 42.335C92.554 42.4229 92.5423 42.5137 92.5247 42.6074C92.4954 42.8008 92.4632 42.9912 92.428 43.1787C92.3929 43.3662 92.3548 43.5537 92.3137 43.7412C92.1673 44.415 91.9856 45.0771 91.7688 45.7275C91.5579 46.3779 91.3235 47.0225 91.0657 47.6611C90.972 47.8896 90.8723 48.1182 90.7669 48.3467C90.6673 48.5811 90.553 48.8066 90.4241 49.0234C90.3011 49.2461 90.1634 49.457 90.011 49.6562C89.8587 49.8555 89.6858 50.0371 89.4925 50.2012C89.2229 50.4414 88.9124 50.5615 88.5608 50.5615C88.3733 50.5615 88.1917 50.5293 88.0159 50.4648C87.8401 50.4004 87.6761 50.3125 87.5237 50.2012C87.3714 50.0957 87.2366 49.9668 87.1194 49.8145C86.9964 49.668 86.9026 49.5098 86.8382 49.3398C86.8323 49.334 86.8294 49.3193 86.8294 49.2959C86.8294 49.2607 86.844 49.2314 86.8733 49.208C86.9026 49.1846 86.9348 49.1729 86.97 49.1729C87.011 49.1729 87.0462 49.1934 87.0755 49.2344C87.1048 49.2871 87.1341 49.3398 87.1634 49.3926C87.1868 49.4453 87.219 49.4951 87.26 49.542C87.4124 49.7295 87.5999 49.8848 87.8225 50.0078C88.0393 50.1367 88.2679 50.2012 88.5081 50.2012C88.7835 50.2012 89.0266 50.1045 89.2376 49.9111C89.4016 49.7646 89.5569 49.5859 89.7034 49.375C89.8499 49.1641 89.9876 48.9355 90.1165 48.6895C90.2512 48.4434 90.3743 48.1855 90.4856 47.916C90.6028 47.6465 90.7083 47.377 90.802 47.1074C90.9016 46.8438 90.9925 46.5859 91.0745 46.334C91.1565 46.082 91.2327 45.8506 91.303 45.6396C91.0921 45.8447 90.8636 46.0059 90.6175 46.123C90.3714 46.2402 90.0989 46.2988 89.8001 46.2988C89.7942 46.2988 89.7854 46.2988 89.7737 46.2988C89.762 46.2988 89.7532 46.2959 89.7473 46.29C89.6126 46.2607 89.4983 46.208 89.4046 46.1318C89.3167 46.0557 89.2434 45.9678 89.1848 45.8682C89.1321 45.7627 89.094 45.6514 89.0706 45.5342C89.0471 45.4111 89.0354 45.2881 89.0354 45.165C89.0354 44.8135 89.0852 44.4648 89.1848 44.1191C89.2903 43.7734 89.4456 43.4541 89.6507 43.1611C89.7796 42.9854 89.9261 42.8154 90.0901 42.6514C90.2542 42.4814 90.4329 42.335 90.6262 42.2119C90.8196 42.083 91.0247 41.9805 91.2415 41.9043C91.4583 41.8223 91.6809 41.7812 91.9095 41.7812C91.9446 41.7812 92.0003 41.7842 92.0764 41.79C92.1526 41.7959 92.2288 41.8076 92.305 41.8252C92.387 41.8369 92.4573 41.8574 92.5159 41.8867C92.5804 41.916 92.6126 41.9512 92.6126 41.9922ZM92.305 42.0977C92.2171 42.0742 92.1175 42.0625 92.0061 42.0625C91.8011 42.0625 91.5989 42.1006 91.3997 42.1768C91.2005 42.2529 91.013 42.3555 90.8372 42.4844C90.6614 42.6074 90.5003 42.748 90.3538 42.9062C90.2073 43.0645 90.0784 43.2227 89.9671 43.3809C89.803 43.627 89.677 43.8994 89.5891 44.1982C89.5071 44.4971 89.4661 44.7959 89.4661 45.0947C89.4661 45.1592 89.469 45.2354 89.4749 45.3232C89.4866 45.4111 89.5042 45.4961 89.5276 45.5781C89.5569 45.6543 89.5979 45.7217 89.6507 45.7803C89.7093 45.833 89.7825 45.8594 89.8704 45.8594C90.052 45.8594 90.2278 45.8154 90.3977 45.7275C90.5735 45.6396 90.7346 45.5283 90.8811 45.3936C91.0276 45.2588 91.1565 45.1094 91.2679 44.9453C91.385 44.7754 91.4788 44.6143 91.5491 44.4619C91.7249 44.0811 91.8655 43.6914 91.971 43.293C92.0823 42.8945 92.1936 42.4961 92.305 42.0977ZM103.533 38.5996C103.533 38.6348 103.524 38.6611 103.506 38.6787C103.278 38.8955 103.017 39.0654 102.724 39.1885C102.437 39.3057 102.135 39.3965 101.819 39.4609C101.508 39.5195 101.192 39.5576 100.87 39.5752C100.553 39.5928 100.246 39.6074 99.9469 39.6191C99.9117 40.1699 99.8209 40.7119 99.6744 41.2451C99.5279 41.7783 99.3639 42.3057 99.1822 42.8271C99.0299 43.2783 98.86 43.7207 98.6725 44.1543C98.485 44.582 98.2857 45.0068 98.0748 45.4287C97.9928 45.5928 97.9049 45.7686 97.8111 45.9561C97.7232 46.1377 97.6324 46.3047 97.5387 46.457C97.5211 46.4922 97.4918 46.5098 97.4508 46.5098C97.4156 46.5098 97.3805 46.4951 97.3453 46.4658C97.316 46.4424 97.3014 46.4102 97.3014 46.3691V46.3428C97.3834 46.1494 97.4684 45.9561 97.5563 45.7627C97.6441 45.5693 97.7291 45.373 97.8111 45.1738C97.9811 44.7637 98.1451 44.3535 98.3033 43.9434C98.4674 43.5273 98.6197 43.1084 98.7604 42.6865C98.9303 42.1592 99.0768 41.626 99.1998 41.0869C99.3287 40.5479 99.4898 40.0205 99.6832 39.5049C99.6891 39.499 99.692 39.4932 99.692 39.4873C99.6979 39.4814 99.7037 39.4756 99.7096 39.4697C99.4518 39.5107 99.1852 39.5547 98.9098 39.6016C98.6402 39.6426 98.3736 39.7041 98.11 39.7861C97.8463 39.8623 97.5943 39.9619 97.3541 40.085C97.1139 40.2021 96.8971 40.3545 96.7037 40.542C96.6217 40.624 96.5514 40.7061 96.4928 40.7881C96.44 40.8701 96.3814 40.9551 96.317 41.043C96.2994 41.0781 96.2701 41.0957 96.2291 41.0957C96.1939 41.0957 96.1588 41.084 96.1236 41.0605C96.0943 41.0371 96.0797 41.0049 96.0797 40.9639C96.0797 40.9404 96.0826 40.9258 96.0885 40.9199C96.2818 40.5449 96.5191 40.2461 96.8004 40.0234C97.0875 39.8008 97.401 39.6309 97.7408 39.5137C98.0807 39.3965 98.4381 39.3174 98.8131 39.2764C99.1881 39.2295 99.5631 39.1943 99.9381 39.1709C100.243 39.1533 100.539 39.1328 100.826 39.1094C101.113 39.0801 101.397 39.042 101.678 38.9951C101.96 38.9424 102.238 38.875 102.513 38.793C102.795 38.7051 103.073 38.5938 103.348 38.459C103.36 38.4531 103.375 38.4502 103.392 38.4502C103.433 38.4502 103.465 38.4678 103.489 38.5029C103.518 38.5322 103.533 38.5645 103.533 38.5996ZM105.31 45.4287C105.31 45.4756 105.296 45.5049 105.266 45.5166C105.196 45.5811 105.096 45.6572 104.968 45.7451C104.844 45.8271 104.713 45.9062 104.572 45.9824C104.437 46.0586 104.303 46.123 104.168 46.1758C104.033 46.2344 103.919 46.2637 103.825 46.2637C103.755 46.2637 103.69 46.2461 103.632 46.2109C103.573 46.1816 103.52 46.1406 103.473 46.0879C103.432 46.0352 103.397 45.9766 103.368 45.9121C103.344 45.8477 103.333 45.7832 103.333 45.7188C103.333 45.707 103.333 45.6953 103.333 45.6836C103.339 45.666 103.342 45.6514 103.342 45.6396C103.359 45.5107 103.377 45.3848 103.394 45.2617C103.412 45.1387 103.438 45.0156 103.473 44.8926C103.532 44.6582 103.602 44.4297 103.684 44.207C103.772 43.9785 103.857 43.7529 103.939 43.5303C104.027 43.3018 104.109 43.0762 104.185 42.8535C104.267 42.625 104.335 42.3936 104.387 42.1592C104.399 42.124 104.405 42.0889 104.405 42.0537C104.411 42.0186 104.417 41.9834 104.423 41.9482C104.323 41.96 104.209 41.998 104.08 42.0625C103.957 42.127 103.831 42.2031 103.702 42.291C103.573 42.3789 103.45 42.4727 103.333 42.5723C103.221 42.666 103.128 42.7451 103.052 42.8096C102.958 42.8916 102.849 42.9883 102.726 43.0996C102.603 43.2109 102.483 43.3281 102.366 43.4512C102.249 43.5742 102.14 43.7002 102.041 43.8291C101.941 43.9521 101.871 44.0723 101.83 44.1895C101.783 44.3066 101.745 44.4268 101.716 44.5498C101.686 44.667 101.651 44.7842 101.61 44.9014C101.534 45.1475 101.452 45.3936 101.364 45.6396C101.282 45.8857 101.191 46.1318 101.092 46.3779C101.056 46.46 101.021 46.5449 100.986 46.6328C100.951 46.7266 100.91 46.8115 100.863 46.8877C100.84 46.9287 100.804 46.9492 100.758 46.9492C100.728 46.9492 100.696 46.9346 100.661 46.9053C100.626 46.8818 100.608 46.8525 100.608 46.8174C100.608 46.8115 100.611 46.791 100.617 46.7559C100.629 46.7207 100.637 46.6797 100.643 46.6328C100.655 46.5918 100.664 46.5508 100.67 46.5098C100.681 46.4746 100.687 46.4512 100.687 46.4395C100.822 45.8477 100.983 45.2676 101.171 44.6992C101.358 44.1309 101.543 43.5566 101.724 42.9766C101.883 42.4609 102.044 41.9512 102.208 41.4473C102.372 40.9375 102.539 40.4277 102.709 39.918C102.761 39.748 102.814 39.5781 102.867 39.4082C102.926 39.2383 102.984 39.0684 103.043 38.8984C103.072 38.8281 103.095 38.7549 103.113 38.6787C103.136 38.6025 103.163 38.5293 103.192 38.459C103.21 38.4121 103.245 38.3887 103.298 38.3887C103.327 38.3887 103.359 38.4033 103.394 38.4326C103.429 38.4561 103.447 38.4854 103.447 38.5205L103.438 38.5293C103.251 39.2793 103.049 40.0234 102.832 40.7617C102.621 41.5 102.404 42.2383 102.181 42.9766C102.304 42.8477 102.46 42.6982 102.647 42.5283C102.835 42.3525 103.034 42.1885 103.245 42.0361C103.456 41.8838 103.67 41.7549 103.886 41.6494C104.109 41.5381 104.314 41.4824 104.502 41.4824C104.543 41.4824 104.584 41.4941 104.625 41.5176C104.666 41.541 104.704 41.5732 104.739 41.6143C104.774 41.6494 104.803 41.6904 104.827 41.7373C104.85 41.7783 104.862 41.8193 104.862 41.8604C104.862 41.9248 104.859 41.9922 104.853 42.0625C104.847 42.127 104.836 42.1914 104.818 42.2559C104.76 42.4902 104.689 42.7217 104.607 42.9502C104.525 43.1787 104.437 43.4072 104.344 43.6357C104.256 43.8584 104.168 44.084 104.08 44.3125C103.992 44.5352 103.913 44.7637 103.843 44.998C103.813 45.0977 103.781 45.2119 103.746 45.3408C103.717 45.4639 103.702 45.5781 103.702 45.6836C103.702 45.7363 103.708 45.7891 103.719 45.8418C103.737 45.8945 103.778 45.9209 103.843 45.9209C103.948 45.9209 104.074 45.8887 104.22 45.8242C104.367 45.7598 104.508 45.6895 104.642 45.6133C104.777 45.5312 104.894 45.458 104.994 45.3936C105.094 45.3232 105.155 45.2881 105.178 45.2881C105.219 45.2881 105.252 45.3027 105.275 45.332C105.299 45.3613 105.31 45.3936 105.31 45.4287ZM108.608 42.335C108.608 42.4814 108.573 42.6279 108.503 42.7744C108.433 42.915 108.342 43.0498 108.23 43.1787C108.125 43.3076 108.008 43.4248 107.879 43.5303C107.75 43.6357 107.63 43.7266 107.518 43.8027C107.349 43.9199 107.17 44.0283 106.982 44.1279C106.801 44.2275 106.601 44.2773 106.385 44.2773C106.338 44.2773 106.285 44.2715 106.226 44.2598C106.174 44.248 106.147 44.21 106.147 44.1455C106.147 44.0635 106.185 44.0137 106.262 43.9961C106.279 43.9902 106.3 43.9873 106.323 43.9873C106.347 43.9873 106.37 43.9844 106.393 43.9785C106.458 43.9668 106.519 43.9463 106.578 43.917C106.643 43.8877 106.707 43.8555 106.771 43.8203C106.871 43.7559 106.997 43.665 107.149 43.5479C107.302 43.4307 107.451 43.3018 107.598 43.1611C107.744 43.0205 107.867 42.877 107.967 42.7305C108.072 42.584 108.125 42.4463 108.125 42.3174C108.125 42.2354 108.081 42.1943 107.993 42.1943C107.958 42.1943 107.923 42.2002 107.888 42.2119C107.852 42.2236 107.817 42.2354 107.782 42.2471C107.501 42.3408 107.243 42.4844 107.009 42.6777C106.774 42.8652 106.572 43.085 106.402 43.3369C106.232 43.5889 106.098 43.8584 105.998 44.1455C105.904 44.4326 105.857 44.7197 105.857 45.0068C105.857 45.1006 105.863 45.209 105.875 45.332C105.893 45.4492 105.922 45.5605 105.963 45.666C106.01 45.7715 106.071 45.8623 106.147 45.9385C106.224 46.0088 106.323 46.0439 106.446 46.0439C106.493 46.0439 106.537 46.0352 106.578 46.0176C106.619 46.0059 106.66 45.9883 106.701 45.9648C106.859 45.877 107.006 45.7598 107.141 45.6133C107.275 45.4609 107.395 45.3086 107.501 45.1562C107.53 45.1211 107.557 45.083 107.58 45.042C107.609 45.001 107.639 44.96 107.668 44.9189C107.685 44.8896 107.715 44.875 107.756 44.875C107.791 44.875 107.823 44.8867 107.852 44.9102C107.888 44.9336 107.905 44.9658 107.905 45.0068C107.905 45.0186 107.899 45.0361 107.888 45.0596C107.817 45.1885 107.729 45.332 107.624 45.4902C107.518 45.6426 107.401 45.7861 107.272 45.9209C107.143 46.0557 107.003 46.167 106.851 46.2549C106.704 46.3486 106.549 46.3955 106.385 46.3955C106.203 46.3955 106.051 46.3428 105.928 46.2373C105.81 46.1377 105.717 46.0146 105.646 45.8682C105.576 45.7158 105.526 45.5547 105.497 45.3848C105.468 45.209 105.453 45.0508 105.453 44.9102C105.453 44.4648 105.547 44.04 105.734 43.6357C105.922 43.2256 106.174 42.8652 106.49 42.5547C106.584 42.4609 106.692 42.3672 106.815 42.2734C106.938 42.1738 107.067 42.0859 107.202 42.0098C107.343 41.9277 107.483 41.8633 107.624 41.8164C107.77 41.7637 107.911 41.7373 108.046 41.7373C108.216 41.7373 108.351 41.7959 108.45 41.9131C108.556 42.0244 108.608 42.165 108.608 42.335ZM118.843 38.7578C118.843 38.793 118.831 38.8193 118.808 38.8369C118.62 39.0244 118.392 39.1768 118.122 39.2939C117.853 39.4053 117.586 39.4844 117.322 39.5312C117.076 39.5781 116.827 39.6104 116.575 39.6279C116.323 39.6455 116.069 39.6602 115.811 39.6719C115.559 39.6777 115.307 39.6895 115.055 39.707C114.803 39.7188 114.554 39.751 114.308 39.8037C114.279 40.2783 114.205 40.7441 114.088 41.2012C113.971 41.6582 113.836 42.1094 113.684 42.5547C113.848 42.5547 114.009 42.5664 114.167 42.5898C114.331 42.6133 114.495 42.625 114.659 42.625C114.806 42.625 114.949 42.6191 115.09 42.6074C115.237 42.5898 115.38 42.5635 115.521 42.5283C115.538 42.5225 115.565 42.5137 115.6 42.502C115.641 42.4902 115.679 42.4785 115.714 42.4668C115.755 42.4551 115.79 42.4434 115.82 42.4316C115.855 42.4199 115.875 42.4141 115.881 42.4141C115.91 42.4141 115.943 42.4346 115.978 42.4756C116.013 42.5166 116.031 42.5488 116.031 42.5723C116.031 42.6074 116.016 42.6338 115.987 42.6514C115.764 42.792 115.512 42.8945 115.231 42.959C114.949 43.0234 114.68 43.0557 114.422 43.0557C114.322 43.0557 114.223 43.0498 114.123 43.0381C114.03 43.0264 113.933 43.0205 113.833 43.0205C113.781 43.0205 113.725 43.0234 113.666 43.0293C113.614 43.0352 113.561 43.0439 113.508 43.0557C113.367 43.4424 113.215 43.8262 113.051 44.207C112.887 44.5879 112.711 44.9629 112.524 45.332C112.447 45.4727 112.368 45.625 112.286 45.7891C112.21 45.9473 112.131 46.0938 112.049 46.2285C112.02 46.2578 111.988 46.2725 111.952 46.2725C111.917 46.2725 111.882 46.2607 111.847 46.2373C111.818 46.2139 111.803 46.1816 111.803 46.1406V46.1143C111.867 45.9619 111.935 45.8066 112.005 45.6484C112.081 45.4902 112.152 45.335 112.216 45.1826C112.486 44.5322 112.74 43.873 112.981 43.2051C112.969 43.2109 112.943 43.2227 112.902 43.2402C112.866 43.2578 112.825 43.2783 112.779 43.3018C112.738 43.3193 112.699 43.3369 112.664 43.3545C112.629 43.3662 112.609 43.3721 112.603 43.3721C112.568 43.3721 112.532 43.3545 112.497 43.3193C112.462 43.2783 112.445 43.2402 112.445 43.2051L112.453 43.1787C112.524 43.0439 112.626 42.9326 112.761 42.8447C112.896 42.751 113.036 42.6807 113.183 42.6338C113.335 42.1768 113.464 41.7168 113.57 41.2539C113.681 40.791 113.816 40.334 113.974 39.8828C113.751 39.9473 113.537 40.0381 113.332 40.1553C113.133 40.2666 112.957 40.4131 112.805 40.5947C112.758 40.6416 112.72 40.6914 112.691 40.7441C112.661 40.791 112.626 40.8379 112.585 40.8848C112.568 40.9141 112.541 40.9287 112.506 40.9287C112.471 40.9287 112.436 40.917 112.401 40.8936C112.371 40.8701 112.357 40.8379 112.357 40.7969C112.357 40.7793 112.36 40.7676 112.365 40.7617C112.524 40.4453 112.726 40.1904 112.972 39.9971C113.224 39.7979 113.499 39.6455 113.798 39.54C114.097 39.4287 114.41 39.3525 114.739 39.3115C115.072 39.2646 115.398 39.2324 115.714 39.2148C116.241 39.1914 116.742 39.1416 117.217 39.0654C117.692 38.9834 118.172 38.834 118.658 38.6172C118.67 38.6113 118.685 38.6084 118.702 38.6084C118.738 38.6084 118.77 38.626 118.799 38.6611C118.828 38.6904 118.843 38.7227 118.843 38.7578ZM120.708 45.1299C120.708 45.1533 120.697 45.1768 120.673 45.2002C120.556 45.335 120.445 45.4668 120.339 45.5957C120.234 45.7246 120.12 45.8447 119.996 45.9561C119.879 46.0674 119.747 46.1641 119.601 46.2461C119.46 46.3281 119.299 46.3896 119.118 46.4307C118.848 46.3076 118.713 46.0996 118.713 45.8066C118.713 45.7422 118.719 45.6777 118.731 45.6133C118.743 45.543 118.746 45.4727 118.74 45.4023C118.658 45.4902 118.555 45.5898 118.432 45.7012C118.315 45.8066 118.186 45.9092 118.045 46.0088C117.911 46.1084 117.773 46.1904 117.632 46.2549C117.492 46.3252 117.36 46.3604 117.237 46.3604C117.073 46.3604 116.938 46.3252 116.832 46.2549C116.727 46.1904 116.642 46.1055 116.578 46C116.519 45.8887 116.478 45.7656 116.454 45.6309C116.431 45.4902 116.419 45.3525 116.419 45.2178C116.419 45.0771 116.428 44.9395 116.446 44.8047C116.475 44.5234 116.525 44.2539 116.595 43.9961C116.665 43.7324 116.75 43.4717 116.85 43.2139C116.926 43.0322 117.005 42.8535 117.087 42.6777C117.169 42.4961 117.251 42.3174 117.333 42.1416C117.363 42.083 117.392 42.0186 117.421 41.9482C117.451 41.8721 117.483 41.8105 117.518 41.7637C117.547 41.7227 117.582 41.7021 117.623 41.7021C117.653 41.7021 117.685 41.7168 117.72 41.7461C117.755 41.7754 117.773 41.8047 117.773 41.834C117.773 41.875 117.764 41.9336 117.746 42.0098C117.735 42.0801 117.717 42.1562 117.694 42.2383C117.676 42.3145 117.656 42.3906 117.632 42.4668C117.615 42.5371 117.597 42.5928 117.579 42.6338C117.515 42.8447 117.439 43.0557 117.351 43.2666C117.269 43.4717 117.19 43.6826 117.114 43.8994C117.043 44.1104 116.982 44.3242 116.929 44.541C116.882 44.7578 116.859 44.9775 116.859 45.2002C116.859 45.2646 116.862 45.3408 116.868 45.4287C116.873 45.5107 116.888 45.5928 116.912 45.6748C116.935 45.751 116.97 45.8184 117.017 45.877C117.07 45.9297 117.14 45.9561 117.228 45.9561C117.345 45.9561 117.477 45.918 117.623 45.8418C117.776 45.7598 117.925 45.666 118.072 45.5605C118.224 45.4492 118.368 45.335 118.502 45.2178C118.637 45.1006 118.746 45.0039 118.828 44.9277C118.88 44.6758 118.951 44.3945 119.038 44.084C119.132 43.7676 119.241 43.4512 119.364 43.1348C119.487 42.8184 119.621 42.5195 119.768 42.2383C119.914 41.9512 120.073 41.7109 120.243 41.5176C120.272 41.4883 120.301 41.4736 120.33 41.4736C120.366 41.4736 120.401 41.4883 120.436 41.5176C120.471 41.5469 120.489 41.582 120.489 41.623C120.483 41.6289 120.48 41.6348 120.48 41.6406C120.369 41.9512 120.234 42.2881 120.076 42.6514C119.923 43.0088 119.777 43.375 119.636 43.75C119.496 44.1191 119.375 44.4883 119.276 44.8574C119.176 45.2266 119.126 45.5781 119.126 45.9121C119.126 45.9355 119.126 45.959 119.126 45.9824C119.132 46.0059 119.147 46.0234 119.17 46.0352C119.305 46.0117 119.446 45.9443 119.592 45.833C119.745 45.7217 119.885 45.6045 120.014 45.4814C120.149 45.3525 120.266 45.2383 120.366 45.1387C120.465 45.0391 120.53 44.9893 120.559 44.9893C120.594 44.9893 120.626 45.0039 120.656 45.0332C120.691 45.0625 120.708 45.0947 120.708 45.1299ZM123.532 40.2432C123.532 40.2549 123.529 40.2637 123.523 40.2695C123.523 40.2754 123.523 40.2812 123.523 40.2871C123.341 40.6914 123.154 41.0928 122.961 41.4912C122.767 41.8838 122.594 42.291 122.442 42.7129C122.506 42.7129 122.568 42.7129 122.627 42.7129C122.685 42.707 122.747 42.7041 122.811 42.7041C122.84 42.7041 122.873 42.7041 122.908 42.7041C122.949 42.6982 122.984 42.7012 123.013 42.7129C123.048 42.7188 123.078 42.7334 123.101 42.7568C123.125 42.7744 123.136 42.8066 123.136 42.8535C123.136 42.9121 123.113 42.9502 123.066 42.9678C123.025 42.9795 122.969 42.9941 122.899 43.0117C122.835 43.0234 122.764 43.0352 122.688 43.0469C122.618 43.0586 122.547 43.0703 122.477 43.082C122.413 43.0879 122.357 43.0938 122.31 43.0996C122.257 43.252 122.208 43.4219 122.161 43.6094C122.114 43.791 122.073 43.9814 122.038 44.1807C122.002 44.374 121.973 44.5674 121.95 44.7607C121.926 44.9482 121.915 45.1211 121.915 45.2793C121.915 45.3203 121.915 45.3848 121.915 45.4727C121.92 45.5547 121.929 45.6367 121.941 45.7188C121.959 45.8008 121.982 45.874 122.011 45.9385C122.046 46.0029 122.093 46.0352 122.152 46.0352C122.234 46.0352 122.328 45.9941 122.433 45.9121C122.539 45.8301 122.641 45.7363 122.741 45.6309C122.846 45.5195 122.943 45.4111 123.031 45.3057C123.125 45.1943 123.201 45.1094 123.259 45.0508C123.283 45.0273 123.309 45.0156 123.338 45.0156C123.374 45.0156 123.406 45.0303 123.435 45.0596C123.47 45.0889 123.488 45.1211 123.488 45.1562C123.488 45.1738 123.479 45.1943 123.461 45.2178C123.397 45.3115 123.312 45.4287 123.207 45.5693C123.107 45.7041 122.996 45.8359 122.873 45.9648C122.755 46.0879 122.629 46.1934 122.495 46.2812C122.366 46.3691 122.24 46.4131 122.117 46.4131C121.982 46.4131 121.874 46.3662 121.792 46.2725C121.71 46.1787 121.645 46.0674 121.598 45.9385C121.557 45.8037 121.528 45.666 121.51 45.5254C121.499 45.3789 121.493 45.2559 121.493 45.1562C121.493 45.0156 121.502 44.8574 121.519 44.6816C121.543 44.5059 121.569 44.3271 121.598 44.1455C121.627 43.9639 121.663 43.7881 121.704 43.6182C121.745 43.4424 121.783 43.2842 121.818 43.1436C121.771 43.1436 121.724 43.1465 121.677 43.1523C121.636 43.1523 121.592 43.1523 121.545 43.1523C121.422 43.1523 121.296 43.1494 121.168 43.1436C121.039 43.1377 120.913 43.126 120.79 43.1084C120.667 43.085 120.546 43.0498 120.429 43.0029C120.312 42.9502 120.207 42.8799 120.113 42.792C120.089 42.7744 120.078 42.748 120.078 42.7129C120.078 42.7012 120.095 42.6719 120.13 42.625C120.166 42.5723 120.189 42.5459 120.201 42.5459C120.418 42.5459 120.631 42.5693 120.842 42.6162C121.053 42.6631 121.267 42.6924 121.484 42.7041C121.554 42.71 121.625 42.7129 121.695 42.7129C121.771 42.7129 121.847 42.7129 121.923 42.7129H121.95C122.014 42.5137 122.093 42.2969 122.187 42.0625C122.281 41.8281 122.386 41.5967 122.503 41.3682C122.621 41.1396 122.744 40.9199 122.873 40.709C123.007 40.4922 123.145 40.3047 123.286 40.1465C123.321 40.123 123.35 40.1113 123.374 40.1113C123.409 40.1113 123.444 40.126 123.479 40.1553C123.514 40.1787 123.532 40.208 123.532 40.2432ZM128.087 45.1299C128.087 45.1533 128.075 45.1768 128.051 45.2002C127.934 45.335 127.823 45.4668 127.717 45.5957C127.612 45.7246 127.498 45.8447 127.375 45.9561C127.258 46.0674 127.126 46.1641 126.979 46.2461C126.839 46.3281 126.677 46.3896 126.496 46.4307C126.226 46.3076 126.092 46.0996 126.092 45.8066C126.092 45.7422 126.097 45.6777 126.109 45.6133C126.121 45.543 126.124 45.4727 126.118 45.4023C126.036 45.4902 125.933 45.5898 125.81 45.7012C125.693 45.8066 125.564 45.9092 125.424 46.0088C125.289 46.1084 125.151 46.1904 125.01 46.2549C124.87 46.3252 124.738 46.3604 124.615 46.3604C124.451 46.3604 124.316 46.3252 124.211 46.2549C124.105 46.1904 124.02 46.1055 123.956 46C123.897 45.8887 123.856 45.7656 123.833 45.6309C123.809 45.4902 123.798 45.3525 123.798 45.2178C123.798 45.0771 123.806 44.9395 123.824 44.8047C123.853 44.5234 123.903 44.2539 123.973 43.9961C124.044 43.7324 124.129 43.4717 124.228 43.2139C124.304 43.0322 124.384 42.8535 124.466 42.6777C124.548 42.4961 124.63 42.3174 124.712 42.1416C124.741 42.083 124.77 42.0186 124.8 41.9482C124.829 41.8721 124.861 41.8105 124.896 41.7637C124.926 41.7227 124.961 41.7021 125.002 41.7021C125.031 41.7021 125.063 41.7168 125.098 41.7461C125.134 41.7754 125.151 41.8047 125.151 41.834C125.151 41.875 125.142 41.9336 125.125 42.0098C125.113 42.0801 125.095 42.1562 125.072 42.2383C125.054 42.3145 125.034 42.3906 125.01 42.4668C124.993 42.5371 124.975 42.5928 124.958 42.6338C124.893 42.8447 124.817 43.0557 124.729 43.2666C124.647 43.4717 124.568 43.6826 124.492 43.8994C124.422 44.1104 124.36 44.3242 124.307 44.541C124.26 44.7578 124.237 44.9775 124.237 45.2002C124.237 45.2646 124.24 45.3408 124.246 45.4287C124.252 45.5107 124.266 45.5928 124.29 45.6748C124.313 45.751 124.348 45.8184 124.395 45.877C124.448 45.9297 124.518 45.9561 124.606 45.9561C124.723 45.9561 124.855 45.918 125.002 45.8418C125.154 45.7598 125.303 45.666 125.45 45.5605C125.602 45.4492 125.746 45.335 125.881 45.2178C126.015 45.1006 126.124 45.0039 126.206 44.9277C126.259 44.6758 126.329 44.3945 126.417 44.084C126.51 43.7676 126.619 43.4512 126.742 43.1348C126.865 42.8184 127 42.5195 127.146 42.2383C127.293 41.9512 127.451 41.7109 127.621 41.5176C127.65 41.4883 127.679 41.4736 127.709 41.4736C127.744 41.4736 127.779 41.4883 127.814 41.5176C127.849 41.5469 127.867 41.582 127.867 41.623C127.861 41.6289 127.858 41.6348 127.858 41.6406C127.747 41.9512 127.612 42.2881 127.454 42.6514C127.301 43.0088 127.155 43.375 127.014 43.75C126.874 44.1191 126.754 44.4883 126.654 44.8574C126.554 45.2266 126.505 45.5781 126.505 45.9121C126.505 45.9355 126.505 45.959 126.505 45.9824C126.51 46.0059 126.525 46.0234 126.549 46.0352C126.683 46.0117 126.824 45.9443 126.97 45.833C127.123 45.7217 127.263 45.6045 127.392 45.4814C127.527 45.3525 127.644 45.2383 127.744 45.1387C127.843 45.0391 127.908 44.9893 127.937 44.9893C127.972 44.9893 128.005 45.0039 128.034 45.0332C128.069 45.0625 128.087 45.0947 128.087 45.1299ZM131.525 42.4844C131.525 42.5312 131.522 42.5752 131.516 42.6162C131.511 42.6572 131.502 42.7012 131.49 42.748C131.478 42.7949 131.446 42.8184 131.393 42.8184C131.37 42.8184 131.335 42.8096 131.288 42.792C131.247 42.7686 131.226 42.7451 131.226 42.7217L131.235 42.6426C131.235 42.6016 131.229 42.5518 131.218 42.4932C131.212 42.4346 131.197 42.3789 131.174 42.3262C131.156 42.2676 131.13 42.2207 131.095 42.1855C131.059 42.1445 131.013 42.124 130.954 42.124C130.813 42.124 130.664 42.168 130.506 42.2559C130.348 42.3379 130.213 42.4199 130.101 42.502C130.055 42.5371 129.99 42.5898 129.908 42.6602C129.826 42.7305 129.741 42.8066 129.653 42.8887C129.565 42.9707 129.483 43.0498 129.407 43.126C129.337 43.2021 129.287 43.2637 129.258 43.3105C129.24 43.334 129.217 43.3779 129.187 43.4424C129.164 43.501 129.138 43.5654 129.108 43.6357C129.085 43.7061 129.058 43.7734 129.029 43.8379C129.006 43.9023 128.985 43.9521 128.968 43.9873C128.85 44.2686 128.736 44.5498 128.625 44.8311C128.519 45.1123 128.42 45.3965 128.326 45.6836C128.279 45.8184 128.235 45.9561 128.194 46.0967C128.159 46.2432 128.118 46.3838 128.071 46.5186C128.048 46.5654 128.018 46.5889 127.983 46.5889C127.96 46.5889 127.925 46.5742 127.878 46.5449C127.837 46.5215 127.816 46.498 127.816 46.4746C127.816 46.4102 127.825 46.3369 127.843 46.2549C127.866 46.1729 127.884 46.0996 127.895 46.0352C127.972 45.6543 128.065 45.2793 128.177 44.9102C128.288 44.541 128.417 44.1777 128.563 43.8203C128.616 43.6797 128.678 43.5127 128.748 43.3193C128.824 43.126 128.903 42.9297 128.985 42.7305C129.067 42.5254 129.152 42.335 129.24 42.1592C129.334 41.9775 129.428 41.834 129.521 41.7285C129.545 41.7051 129.571 41.6934 129.6 41.6934C129.624 41.6934 129.656 41.708 129.697 41.7373C129.744 41.7607 129.767 41.7871 129.767 41.8164C129.767 41.834 129.762 41.8662 129.75 41.9131C129.738 41.9541 129.726 42.001 129.715 42.0537C129.703 42.1006 129.688 42.1475 129.671 42.1943C129.659 42.2354 129.65 42.2646 129.644 42.2822C129.832 42.1416 130.028 42.0156 130.233 41.9043C130.438 41.793 130.664 41.7373 130.91 41.7373C131.016 41.7373 131.106 41.7607 131.183 41.8076C131.259 41.8486 131.323 41.9043 131.376 41.9746C131.429 42.0449 131.467 42.124 131.49 42.2119C131.514 42.2998 131.525 42.3906 131.525 42.4844ZM134.498 42.335C134.498 42.4814 134.463 42.6279 134.393 42.7744C134.322 42.915 134.231 43.0498 134.12 43.1787C134.015 43.3076 133.897 43.4248 133.769 43.5303C133.64 43.6357 133.52 43.7266 133.408 43.8027C133.238 43.9199 133.06 44.0283 132.872 44.1279C132.69 44.2275 132.491 44.2773 132.274 44.2773C132.228 44.2773 132.175 44.2715 132.116 44.2598C132.064 44.248 132.037 44.21 132.037 44.1455C132.037 44.0635 132.075 44.0137 132.151 43.9961C132.169 43.9902 132.189 43.9873 132.213 43.9873C132.236 43.9873 132.26 43.9844 132.283 43.9785C132.348 43.9668 132.409 43.9463 132.468 43.917C132.532 43.8877 132.597 43.8555 132.661 43.8203C132.761 43.7559 132.887 43.665 133.039 43.5479C133.191 43.4307 133.341 43.3018 133.487 43.1611C133.634 43.0205 133.757 42.877 133.856 42.7305C133.962 42.584 134.015 42.4463 134.015 42.3174C134.015 42.2354 133.971 42.1943 133.883 42.1943C133.848 42.1943 133.813 42.2002 133.777 42.2119C133.742 42.2236 133.707 42.2354 133.672 42.2471C133.391 42.3408 133.133 42.4844 132.898 42.6777C132.664 42.8652 132.462 43.085 132.292 43.3369C132.122 43.5889 131.987 43.8584 131.888 44.1455C131.794 44.4326 131.747 44.7197 131.747 45.0068C131.747 45.1006 131.753 45.209 131.765 45.332C131.782 45.4492 131.812 45.5605 131.853 45.666C131.899 45.7715 131.961 45.8623 132.037 45.9385C132.113 46.0088 132.213 46.0439 132.336 46.0439C132.383 46.0439 132.427 46.0352 132.468 46.0176C132.509 46.0059 132.55 45.9883 132.591 45.9648C132.749 45.877 132.896 45.7598 133.03 45.6133C133.165 45.4609 133.285 45.3086 133.391 45.1562C133.42 45.1211 133.446 45.083 133.47 45.042C133.499 45.001 133.528 44.96 133.558 44.9189C133.575 44.8896 133.605 44.875 133.646 44.875C133.681 44.875 133.713 44.8867 133.742 44.9102C133.777 44.9336 133.795 44.9658 133.795 45.0068C133.795 45.0186 133.789 45.0361 133.777 45.0596C133.707 45.1885 133.619 45.332 133.514 45.4902C133.408 45.6426 133.291 45.7861 133.162 45.9209C133.033 46.0557 132.893 46.167 132.74 46.2549C132.594 46.3486 132.439 46.3955 132.274 46.3955C132.093 46.3955 131.94 46.3428 131.817 46.2373C131.7 46.1377 131.606 46.0146 131.536 45.8682C131.466 45.7158 131.416 45.5547 131.387 45.3848C131.357 45.209 131.343 45.0508 131.343 44.9102C131.343 44.4648 131.437 44.04 131.624 43.6357C131.812 43.2256 132.064 42.8652 132.38 42.5547C132.474 42.4609 132.582 42.3672 132.705 42.2734C132.828 42.1738 132.957 42.0859 133.092 42.0098C133.232 41.9277 133.373 41.8633 133.514 41.8164C133.66 41.7637 133.801 41.7373 133.936 41.7373C134.106 41.7373 134.24 41.7959 134.34 41.9131C134.445 42.0244 134.498 42.165 134.498 42.335Z" fill="white"/>
<path d="M39.5475 11C40.9394 11.0008 42.3279 11.1368 43.6941 11.4062C45.5291 11.7769 47.2758 12.3907 48.8774 13.3861C50.2266 14.2245 51.3779 15.2776 52.2692 16.6092C53.0468 17.7693 53.5754 19.0814 53.8209 20.4607C53.962 21.2267 54.02 22.0061 53.9939 22.7849C53.9524 23.9067 53.7712 25.0189 53.4547 26.0949C52.967 27.7661 52.2229 29.3161 51.2914 30.7764C50.4395 32.1034 49.4606 33.3425 48.3686 34.4756C46.4574 36.4735 44.2959 38.1455 41.9259 39.5471C39.1496 41.1991 36.1477 42.4282 33.0169 43.1949C31.7173 43.5112 30.3978 43.7368 29.0676 43.8701C27.8951 43.992 26.7155 44.0281 25.5378 43.9784C23.5017 43.8871 21.5086 43.549 19.5913 42.8236C18.0481 42.2406 16.633 41.4414 15.4031 40.3241C13.626 38.7111 12.5336 36.7151 12.1394 34.3366C12.0101 33.5338 11.9706 32.7188 12.0216 31.907C12.1361 29.9323 12.694 28.0848 13.54 26.3153C14.4753 24.36 15.715 22.6184 17.1605 21.0192C18.62 19.4062 20.2568 17.9985 22.0352 16.7581C24.6227 14.9558 27.4505 13.5344 30.4336 12.5368C32.1421 11.9609 33.898 11.5406 35.6806 11.2809C36.6001 11.1476 37.5259 11.0623 38.4541 11.0255C38.7712 11.0109 39.0878 11.0052 39.5475 11ZM49.6799 30.2051C49.6319 30.1769 49.5824 30.1514 49.5317 30.1285C48.7423 29.8382 47.9365 29.6084 47.0999 29.5067C46.7291 29.4622 46.3554 29.4533 45.9841 29.5384C45.646 29.6159 45.3762 29.7805 45.2036 30.0916C45.0591 30.3508 44.91 30.6075 44.765 30.8667C44.5475 31.2554 44.3441 31.6535 44.1103 32.0323C42.9837 33.8656 41.4125 35.1239 39.3651 35.7656C38.3371 36.0878 37.2703 36.2661 36.1945 36.2957C34.8093 36.3354 33.4331 36.273 32.0643 36.0309C30.0642 35.6776 28.1319 35.0073 26.3384 34.0448C23.6986 32.6328 21.4544 30.7347 19.5487 28.4177C19.0762 27.8454 18.6462 27.2384 18.2623 26.6019C18.1762 26.46 18.1767 26.4434 18.2936 26.3451C18.4764 26.1909 18.6602 26.0382 18.8482 25.8907C21.539 23.7755 24.3856 21.9082 27.4528 20.3931C28.8796 19.688 30.3466 19.0861 31.8781 18.6515C32.8799 18.3604 33.9082 18.1723 34.9473 18.0902C36.0111 18.0104 37.0808 18.0931 38.1202 18.3356C40.0474 18.7863 41.6664 19.7542 42.9636 21.2651C43.7062 22.1304 44.2623 23.1092 44.6939 24.1652C45.0975 25.1505 45.3527 26.1916 45.451 27.2535C45.4678 27.436 45.4473 27.4573 45.2785 27.463C45.1994 27.4658 45.1199 27.463 45.0404 27.463H30.45C30.3705 27.463 30.291 27.463 30.2119 27.463C30.03 27.4568 30.0132 27.4431 30.0118 27.2681C30.0085 26.9244 30.0076 26.5806 30.0118 26.2368C30.0165 25.7682 29.9435 25.8112 30.4233 25.8112C33.756 25.8112 37.0888 25.8112 40.4215 25.8112H43.1095C43.2002 25.8112 43.291 25.8112 43.3812 25.806C43.4621 25.8013 43.4958 25.7493 43.4776 25.6642C43.4706 25.6305 43.4621 25.5972 43.4518 25.5644C43.0735 24.3609 42.5049 23.2625 41.6827 22.3049C41.0992 21.6148 40.3892 21.0453 39.5919 20.6276C38.1422 19.8748 36.5906 19.6247 34.9781 19.7415C34.084 19.8063 33.2086 19.994 32.3449 20.2403C30.5589 20.7506 28.8693 21.4949 27.2284 22.3583C25.5421 23.2514 23.9132 24.2509 22.3513 25.3511C21.727 25.788 21.1172 26.2458 20.5027 26.6964C20.3872 26.7811 20.3868 26.8061 20.4681 26.9177C20.5355 27.0123 20.6061 27.0993 20.6776 27.1887C21.3596 28.046 22.1072 28.8477 22.9134 29.5866C24.9711 31.4691 27.2859 32.9194 29.9346 33.7951C31.4307 34.2964 32.9893 34.5812 34.5643 34.6411C35.0174 34.6567 35.471 34.6577 35.9242 34.6529C36.8428 34.6468 37.7563 34.5138 38.6393 34.2576C40.4571 33.7261 41.9559 32.7014 43.1755 31.2483C43.7787 30.5281 44.2913 29.7483 44.6425 28.8674C44.7982 28.4763 44.7308 28.5364 45.1246 28.5364C46.848 28.5345 48.5711 28.5345 50.2939 28.5364C50.3846 28.5364 50.4754 28.5331 50.5661 28.5364C50.6001 28.5379 50.6338 28.5295 50.6631 28.5121C50.6925 28.4947 50.7163 28.4692 50.7316 28.4385C50.755 28.3992 50.7756 28.3581 50.7962 28.3174C51.5346 26.8468 52.078 25.3138 52.2683 23.6653C52.3745 22.7503 52.3805 21.8353 52.2281 20.9269C51.8961 18.948 50.9828 17.2859 49.5097 15.9405C48.4266 14.9508 47.1743 14.25 45.8153 13.7403C43.9368 13.0371 41.9867 12.7246 39.9913 12.6844C38.8808 12.6572 37.7699 12.7078 36.6663 12.8357C35.5415 12.9692 34.4256 13.1707 33.3246 13.4391C30.8579 14.0473 28.4744 14.9595 26.2276 16.1552C23.5569 17.57 21.1331 19.3197 19.01 21.4864C17.9116 22.5973 16.9318 23.822 16.0868 25.1402C15.1449 26.6241 14.4033 28.1987 13.9824 29.9186C13.6677 31.21 13.5615 32.5156 13.7392 33.8372C14.0198 35.9056 14.9406 37.6363 16.4618 39.0388C17.6969 40.1784 19.1517 40.9303 20.7286 41.4542C22.4318 42.0217 24.1892 42.2699 25.9737 42.3271C27.2428 42.361 28.5124 42.2899 29.77 42.1143C31.2859 41.9097 32.7829 41.5811 34.2463 41.1317C36.0893 40.5666 37.8776 39.8332 39.5891 38.9404C41.9091 37.7346 44.0495 36.2654 45.9818 34.4917C47.3122 33.2703 48.5071 31.9297 49.5312 30.4321C49.5752 30.3673 49.6172 30.3006 49.6799 30.2051Z" fill="white"/>
</svg>
